<svg xmlns="http://www.w3.org/2000/svg" viewBox="0 0 100 100">
<rect width="100" height="100" fill="#0d131d"/>
<line x1="10" y1="0" x2="10" y2="100" stroke="#fff" stroke-opacity=".035" stroke-width=".4"/><line x1="20" y1="0" x2="20" y2="100" stroke="#fff" stroke-opacity=".035" stroke-width=".4"/><line x1="30" y1="0" x2="30" y2="100" stroke="#fff" stroke-opacity=".035" stroke-width=".4"/><line x1="40" y1="0" x2="40" y2="100" stroke="#fff" stroke-opacity=".035" stroke-width=".4"/><line x1="50" y1="0" x2="50" y2="100" stroke="#fff" stroke-opacity=".035" stroke-width=".4"/><line x1="60" y1="0" x2="60" y2="100" stroke="#fff" stroke-opacity=".035" stroke-width=".4"/><line x1="70" y1="0" x2="70" y2="100" stroke="#fff" stroke-opacity=".035" stroke-width=".4"/><line x1="80" y1="0" x2="80" y2="100" stroke="#fff" stroke-opacity=".035" stroke-width=".4"/><line x1="90" y1="0" x2="90" y2="100" stroke="#fff" stroke-opacity=".035" stroke-width=".4"/><line x1="0" y1="10" x2="100" y2="10" stroke="#fff" stroke-opacity=".035" stroke-width=".4"/><line x1="0" y1="20" x2="100" y2="20" stroke="#fff" stroke-opacity=".035" stroke-width=".4"/><line x1="0" y1="30" x2="100" y2="30" stroke="#fff" stroke-opacity=".035" stroke-width=".4"/><line x1="0" y1="40" x2="100" y2="40" stroke="#fff" stroke-opacity=".035" stroke-width=".4"/><line x1="0" y1="50" x2="100" y2="50" stroke="#fff" stroke-opacity=".035" stroke-width=".4"/><line x1="0" y1="60" x2="100" y2="60" stroke="#fff" stroke-opacity=".035" stroke-width=".4"/><line x1="0" y1="70" x2="100" y2="70" stroke="#fff" stroke-opacity=".035" stroke-width=".4"/><line x1="0" y1="80" x2="100" y2="80" stroke="#fff" stroke-opacity=".035" stroke-width=".4"/><line x1="0" y1="90" x2="100" y2="90" stroke="#fff" stroke-opacity=".035" stroke-width=".4"/>
<polyline points="50.0,50.0 39.0,40.0 30.0,31.0 22.0,23.0 14.0,16.0" fill="none" stroke="#69788e" stroke-opacity=".48" stroke-width="7" stroke-linecap="round" stroke-linejoin="round"/>
<polyline points="50.0,50.0 39.0,40.0 30.0,31.0 22.0,23.0 14.0,16.0" fill="none" stroke="#111827" stroke-width="4.6" stroke-linecap="round" stroke-linejoin="round"/>
<rect x="47.0" y="30.0" width="10" height="8" rx="1.5" fill="#1c2635" stroke="#344154" stroke-width=".6"/><rect x="20.0" y="34.0" width="10" height="8" rx="1.5" fill="#1c2635" stroke="#344154" stroke-width=".6"/><rect x="30.0" y="13.0" width="10" height="8" rx="1.5" fill="#1c2635" stroke="#344154" stroke-width=".6"/>
<circle cx="22" cy="26" r="4.5" fill="#202b3b" stroke="#75849a" stroke-width=".8"/><text x="22" y="27.2" fill="#dce6f2" font-size="3.1" font-family="sans-serif" text-anchor="middle">闪点 1</text><circle cx="50" cy="50" r="4.5" fill="#202b3b" stroke="#75849a" stroke-width=".8"/><text x="50" y="51.2" fill="#dce6f2" font-size="3.1" font-family="sans-serif" text-anchor="middle">中心</text><circle cx="78" cy="30" r="4.5" fill="#202b3b" stroke="#75849a" stroke-width=".8"/><text x="78" y="31.2" fill="#dce6f2" font-size="3.1" font-family="sans-serif" text-anchor="middle">闪点 2</text><circle cx="70" cy="72" r="4.5" fill="#202b3b" stroke="#75849a" stroke-width=".8"/><text x="70" y="73.2" fill="#dce6f2" font-size="3.1" font-family="sans-serif" text-anchor="middle">侧点</text>
<rect x="3" y="3" width="94" height="9" rx="2" fill="#111827" fill-opacity=".92" stroke="#334155" stroke-width=".5"/>
<text x="6" y="9.2" fill="#fff" font-size="4.2" font-weight="700" font-family="sans-serif">阿特利斯</text>
<text x="94" y="9.2" fill="#9fb0c7" font-size="3.1" font-family="sans-serif" text-anchor="end">闪点作战 · 战术示意图</text>
<text x="50" y="97" fill="#64748b" font-size="2.6" font-family="sans-serif" text-anchor="middle">示意图用于路线学习，不代表官方像素级平面布局</text>
</svg>